<svg xmlns="http://www.w3.org/2000/svg" viewBox="0 0 299.23 114.41"><defs><style>.cls-1,.cls-2{fill:none;stroke:#fff;stroke-linejoin:round;}.cls-1{stroke-linecap:round;stroke-width:6px;}.cls-2{stroke-width:5px;}</style></defs><title>Ativo 1</title><g id="Camada_2" data-name="Camada 2"><g id="Layer_1" data-name="Layer 1"><path class="cls-1" d="M113.77,80.15H83.18V34.26"/><path class="cls-1" d="M152,44.68V64.85a15.3,15.3,0,0,1-15.3,15.3h0a15.3,15.3,0,0,1-15.3-15.3V34.26"/><polyline class="cls-1" points="265.64 69.72 265.64 34.26 296.23 80.14 296.23 34.26"/><polyline class="cls-1" points="167.64 80.14 167.64 34.26 186.76 72.5 205.88 34.26 205.88 80.14"/><polyline class="cls-1" points="252.1 80.14 221.51 80.14 221.51 34.26 252.1 34.26"/><line class="cls-1" x1="221.51" y1="57.2" x2="244.45" y2="57.2"/><path class="cls-2" d="M27.22,41.71h8.1a7.07,7.07,0,0,1,6.08,3.46L51,61.28a7.07,7.07,0,0,1-.11,7.4l-.13.21,0,0-1.89,3L10.29,111.24a1.41,1.41,0,0,1-2.56-1.13L30.28,65"/><path class="cls-2" d="M15.06,61.91l.63-1.18L49.7,4.6a1.41,1.41,0,0,0-2.25-1.67L4.56,39.71a7.07,7.07,0,0,0-1.07,8.59l7.85,13.25A7.07,7.07,0,0,0,17.42,65H48.57"/><path class="cls-2" d="M48.82,71.89l1.89-3,0,0A2.54,2.54,0,0,0,48.57,65H47.08"/><path class="cls-2" d="M16.92,65a2.11,2.11,0,0,1-1.86-3.11l.63-1.18"/></g></g></svg>