<svg xmlns="http://www.w3.org/2000/svg" viewBox="0 0 246.23 62.99"><defs><style>.cls-1{fill:#fff;}</style></defs><title>Ativo 7</title><g id="Camada_2" data-name="Camada 2"><g id="Grid"><path class="cls-1" d="M19.41,29.15l-7.7-2.22a3.18,3.18,0,0,1-2.55-3.17c0-1.78,1.78-3,4.34-3,3.38,0,5.31,1.46,5.31,4V25h8v-.31c0-6.4-5-10.37-13.08-10.37C6.39,14.36,1,18.49,1,24.18c0,4.68,2.57,8,7.24,9.25l8.33,2.29a2.84,2.84,0,0,1,2.2,3.1c0,2.13-1.7,3.51-4.34,3.51-3.7,0-6.28-1.81-6.28-4.41v-.31H0v.31C0,44.33,5.91,49,14,49s13.08-4.16,13.08-10.86c0-4.11-3-7.63-7.72-9"/><path class="cls-1" d="M200.34,29.15l-7.7-2.22a3.18,3.18,0,0,1-2.55-3.17c0-1.78,1.78-3,4.34-3,3.38,0,5.31,1.46,5.31,4V25h8v-.31c0-6.4-5-10.37-13.08-10.37-7.38,0-12.73,4.13-12.73,9.82,0,4.68,2.57,8,7.24,9.25l8.33,2.29a2.84,2.84,0,0,1,2.2,3.1c0,2.13-1.7,3.51-4.34,3.51-3.7,0-6.28-1.81-6.28-4.41v-.31h-8.18v.31c0,6.41,5.91,11.06,14,11.06s13.08-4.16,13.08-10.86c0-4.11-3-7.63-7.72-9"/><rect class="cls-1" x="146.06" y="14.97" width="7.66" height="33.41"/><path class="cls-1" d="M149.88,0a4.7,4.7,0,1,0,4.7,4.7,4.7,4.7,0,0,0-4.7-4.7"/><path class="cls-1" d="M168.45,27a4.7,4.7,0,1,0,4.7,4.7,4.7,4.7,0,0,0-4.7-4.7"/><path class="cls-1" d="M131.32,17.78l-.06,0a15.71,15.71,0,0,0-19.66.17,18,18,0,0,0,0,27.54,15.71,15.71,0,0,0,19.66.17l.06,0v2.81H139V15h-7.66Zm-9.23,23.81c-5.09,0-9.23-4.45-9.23-9.92s4.14-9.92,9.23-9.92,9.23,4.45,9.23,9.92-4.14,9.92-9.23,9.92"/><path class="cls-1" d="M47.53,14.36c-9.41,0-16.77,7.61-16.77,17.31S38.13,49,47.53,49c.73,0,1.45,0,2.16-.1h.1a18.71,18.71,0,0,0,12.72-7.11L57.73,37c-5,5.32-9.54,4.82-9.54,4.82a9.5,9.5,0,0,1-9.36-7H64a18.74,18.74,0,0,0,.26-3.12c0-9.7-7.37-17.31-16.77-17.31M38.82,28.55a8.95,8.95,0,0,1,17.43,0Z"/><path class="cls-1" d="M93.92,17.12a14.6,14.6,0,0,0-17.33.37V15H68.83V48.37H76.6V30.07c0-.1,0-.21,0-.32a8.14,8.14,0,0,1,9-7.75,8.32,8.32,0,0,1,7.2,8.35v18h7.77V30.08a15.88,15.88,0,0,0-6.7-13"/><path class="cls-1" d="M239.83,17.9a15.71,15.71,0,0,0-19.66-.17l-.06,0V15h-7.66V63h7.66V45.56l.06,0a15.71,15.71,0,0,0,19.66-.17,18,18,0,0,0,0-27.54Zm-1.25,13.77h0c0,5.48-4.13,9.92-9.23,9.92h-.62c-4.81-.34-8.61-4.64-8.61-9.89h0c0-5.25,3.8-9.55,8.61-9.89h.62c5.1,0,9.23,4.44,9.23,9.92Z"/></g></g></svg>