<svg xmlns="http://www.w3.org/2000/svg" viewBox="0 0 246.04 57.16"><defs><style>.cls-1{fill:#fff;}</style></defs><title>Ativo 2</title><g id="Camada_2" data-name="Camada 2"><g id="Layer_3" data-name="Layer 3"><path class="cls-1" d="M9.23,37.39a5.3,5.3,0,0,0,1.56,1.72,6.7,6.7,0,0,0,2.2,1,10.34,10.34,0,0,0,2.59.32,9.66,9.66,0,0,0,2-.22,6.83,6.83,0,0,0,1.92-.7,4.36,4.36,0,0,0,1.44-1.28,3.36,3.36,0,0,0,.57-2q0-2-2.71-3.07a54.39,54.39,0,0,0-7.57-2q-2-.45-3.86-1.05A13.16,13.16,0,0,1,4,28.45,7.75,7.75,0,0,1,1.66,26a7,7,0,0,1-.89-3.67A9.94,9.94,0,0,1,2,17.05,9.18,9.18,0,0,1,5.3,13.83a14.43,14.43,0,0,1,4.6-1.66,28.33,28.33,0,0,1,5.24-.48,26.2,26.2,0,0,1,5.21.51,13.8,13.8,0,0,1,4.5,1.72,10.35,10.35,0,0,1,3.29,3.23,10.85,10.85,0,0,1,1.56,5.08H21.08a4,4,0,0,0-2-3.54,9.06,9.06,0,0,0-4.22-.93,15.6,15.6,0,0,0-1.66.1,5.54,5.54,0,0,0-1.63.42,3.36,3.36,0,0,0-1.25.93,2.44,2.44,0,0,0-.51,1.63,2.49,2.49,0,0,0,.89,2A6.9,6.9,0,0,0,13.06,24a29.13,29.13,0,0,0,3.29.86q1.85.38,3.77.83A38.71,38.71,0,0,1,24,26.82a12.73,12.73,0,0,1,3.35,1.69,8.2,8.2,0,0,1,2.36,2.62A7.69,7.69,0,0,1,30.59,35a10,10,0,0,1-4.73,9A14,14,0,0,1,21,45.89a28.16,28.16,0,0,1-5.52.54,27.35,27.35,0,0,1-5.62-.57A14.83,14.83,0,0,1,5,43.94,11,11,0,0,1,1.5,40.4,11.09,11.09,0,0,1,0,34.87H8.62a5,5,0,0,0,.61,2.52"/><path class="cls-1" d="M45,37.68a8.11,8.11,0,0,0,5.88,2,8.08,8.08,0,0,0,4.73-1.37A5.7,5.7,0,0,0,58,35.38h8q-1.92,5.94-5.88,8.49a17.29,17.29,0,0,1-9.58,2.55,18.85,18.85,0,0,1-7-1.25,14.6,14.6,0,0,1-5.3-3.54,15.94,15.94,0,0,1-3.35-5.49,20.09,20.09,0,0,1-1.18-7,19.26,19.26,0,0,1,1.21-6.9A16,16,0,0,1,43.67,13a17.1,17.1,0,0,1,6.87-1.34,15.7,15.7,0,0,1,7.34,1.63A14.68,14.68,0,0,1,63,17.69,18,18,0,0,1,65.92,24a23.35,23.35,0,0,1,.64,7.34H42.74q.19,4.41,2.24,6.39M55.23,20.31a6.37,6.37,0,0,0-4.95-1.79,7.9,7.9,0,0,0-3.61.73,6.88,6.88,0,0,0-2.3,1.82,6.67,6.67,0,0,0-1.21,2.3,10.36,10.36,0,0,0-.42,2.17H57.49a10.49,10.49,0,0,0-2.27-5.24"/><path class="cls-1" d="M79.93,12.58v4.6h.19A10.4,10.4,0,0,1,84.6,13a12.94,12.94,0,0,1,5.62-1.31,15.41,15.41,0,0,1,6,1,8.86,8.86,0,0,1,3.67,2.75,10.64,10.64,0,0,1,1.88,4.28,26.67,26.67,0,0,1,.54,5.59V45.6H93.22V27a11.57,11.57,0,0,0-1.28-6.1q-1.28-2-4.53-2Q83.7,18.84,82,21t-1.66,7.25V45.6H71.31v-33Z"/><path class="cls-1" d="M108.16,22.74a10.53,10.53,0,0,1,1.6-5.3,10.86,10.86,0,0,1,3.58-3.39,15.59,15.59,0,0,1,4.89-1.82,27.82,27.82,0,0,1,5.46-.54,37.13,37.13,0,0,1,5,.35,15.47,15.47,0,0,1,4.66,1.37,9.19,9.19,0,0,1,3.45,2.84,7.94,7.94,0,0,1,1.34,4.82V38.26a34.39,34.39,0,0,0,.26,4.28,7.71,7.71,0,0,0,.89,3.07h-9.2a12.78,12.78,0,0,1-.42-1.56,13.39,13.39,0,0,1-.22-1.63,11.82,11.82,0,0,1-5.11,3.13,20.53,20.53,0,0,1-6,.89,16.21,16.21,0,0,1-4.41-.57,10.09,10.09,0,0,1-3.58-1.79A8.32,8.32,0,0,1,108,41a10.37,10.37,0,0,1-.86-4.41,9.62,9.62,0,0,1,1-4.63,8.27,8.27,0,0,1,2.55-2.91,11.46,11.46,0,0,1,3.58-1.63,38.6,38.6,0,0,1,4.06-.86q2-.32,4-.51a24.21,24.21,0,0,0,3.51-.57,6.12,6.12,0,0,0,2.43-1.12,2.46,2.46,0,0,0,.83-2.14,4.81,4.81,0,0,0-.48-2.33,3.53,3.53,0,0,0-1.28-1.34,5,5,0,0,0-1.85-.64,15.27,15.27,0,0,0-2.27-.16A6.88,6.88,0,0,0,119,18.9a5.13,5.13,0,0,0-1.79,3.83Zm20.95,6.71a4.06,4.06,0,0,1-1.44.8,14.71,14.71,0,0,1-1.85.48q-1,.19-2.08.32t-2.17.32a16.4,16.4,0,0,0-2,.51,6,6,0,0,0-1.72.86,4.1,4.1,0,0,0-1.18,1.37,4.41,4.41,0,0,0-.45,2.11,4.26,4.26,0,0,0,.45,2,3.42,3.42,0,0,0,1.21,1.31,5.12,5.12,0,0,0,1.79.67,11.4,11.4,0,0,0,2.11.19,8,8,0,0,0,4.15-.89,6,6,0,0,0,2.17-2.14,6.85,6.85,0,0,0,.86-2.52,17.5,17.5,0,0,0,.16-2Z"/><path class="cls-1" d="M144.71,0h9.07V7.47h-9.07Zm9.07,45.6h-9.07v-33h9.07Z"/><path class="cls-1" d="M186.32,37.39a5.3,5.3,0,0,0,1.56,1.72,6.7,6.7,0,0,0,2.2,1,10.34,10.34,0,0,0,2.59.32,9.66,9.66,0,0,0,2-.22,6.83,6.83,0,0,0,1.92-.7A4.36,4.36,0,0,0,198,38.22a3.36,3.36,0,0,0,.57-2q0-2-2.71-3.07a54.39,54.39,0,0,0-7.57-2q-2-.45-3.86-1.05a13.16,13.16,0,0,1-3.35-1.6A7.75,7.75,0,0,1,178.75,26a7,7,0,0,1-.89-3.67,9.94,9.94,0,0,1,1.25-5.24,9.18,9.18,0,0,1,3.29-3.23,14.43,14.43,0,0,1,4.6-1.66,28.33,28.33,0,0,1,5.24-.48,26.2,26.2,0,0,1,5.21.51,13.8,13.8,0,0,1,4.5,1.72,10.35,10.35,0,0,1,3.29,3.23,10.85,10.85,0,0,1,1.56,5.08h-8.62a4,4,0,0,0-2-3.54,9.06,9.06,0,0,0-4.22-.93,15.6,15.6,0,0,0-1.66.1,5.54,5.54,0,0,0-1.63.42,3.36,3.36,0,0,0-1.25.93,2.44,2.44,0,0,0-.51,1.63,2.49,2.49,0,0,0,.89,2A6.9,6.9,0,0,0,190.15,24a29.13,29.13,0,0,0,3.29.86q1.85.38,3.77.83a38.7,38.7,0,0,1,3.86,1.09,12.73,12.73,0,0,1,3.35,1.69,8.2,8.2,0,0,1,2.36,2.62,7.69,7.69,0,0,1,.89,3.86A10,10,0,0,1,203,44a14,14,0,0,1-4.82,1.88,28.16,28.16,0,0,1-5.52.54,27.35,27.35,0,0,1-5.62-.57,14.83,14.83,0,0,1-4.89-1.92,11,11,0,0,1-3.51-3.54,11.09,11.09,0,0,1-1.5-5.52h8.62a5,5,0,0,0,.61,2.52"/><path class="cls-1" d="M221.07,12.58V16.8h.13a10,10,0,0,1,4.22-3.9A12.93,12.93,0,0,1,231,11.69a14.31,14.31,0,0,1,6.71,1.47,13.86,13.86,0,0,1,4.66,3.9,16.48,16.48,0,0,1,2.75,5.65,25.13,25.13,0,0,1,.89,6.74,22.7,22.7,0,0,1-.89,6.39,16.27,16.27,0,0,1-2.71,5.43A13.44,13.44,0,0,1,237.9,45a13.65,13.65,0,0,1-6.35,1.41,12.86,12.86,0,0,1-5.65-1.25,10.69,10.69,0,0,1-4.25-3.67h-.13V57.16h-9.07V12.58Zm11.78,26.19a7.27,7.27,0,0,0,2.43-2.33,9.62,9.62,0,0,0,1.31-3.35,19.81,19.81,0,0,0,.38-3.9,18.38,18.38,0,0,0-.41-3.9,10.4,10.4,0,0,0-1.37-3.42,7.67,7.67,0,0,0-2.46-2.43,6.87,6.87,0,0,0-3.67-.93,7,7,0,0,0-3.74.93,7.45,7.45,0,0,0-2.43,2.39,9.94,9.94,0,0,0-1.31,3.38,20.16,20.16,0,0,0-.38,4,18.3,18.3,0,0,0,.42,3.9A10.05,10.05,0,0,0,223,36.44a7.74,7.74,0,0,0,9.9,2.33"/><rect class="cls-1" x="161.93" y="24.11" width="7.87" height="9.27"/></g></g></svg>