<svg xmlns="http://www.w3.org/2000/svg" viewBox="0 0 1228.59 708.3"><defs><style>.cls-1,.cls-16,.cls-17{font-size:37.18px;font-family:OpenSans-Bold, Open Sans;font-weight:700;}.cls-1,.cls-13{fill:#fcd460;}.cls-16,.cls-2{fill:#f15a24;}.cls-14,.cls-15,.cls-3,.cls-5,.cls-7,.cls-8,.cls-9{fill:none;}.cls-14,.cls-15,.cls-3{stroke:#c7cacc;}.cls-14,.cls-15,.cls-3,.cls-5,.cls-7{stroke-miterlimit:10;}.cls-3{stroke-width:3px;}.cls-4{fill:#fff;}.cls-5,.cls-7,.cls-8,.cls-9{stroke:#f15a24;}.cls-6{font-size:15.17px;fill:#6d6e71;font-family:OpenSans-Regular, Open Sans;letter-spacing:0.5em;}.cls-7,.cls-9{stroke-linecap:round;}.cls-7{stroke-width:4px;}.cls-8,.cls-9{stroke-linejoin:round;}.cls-14,.cls-15,.cls-9{stroke-width:2px;}.cls-10{fill:#f9f3ed;}.cls-11{fill:#bcbcbc;}.cls-12,.cls-17{fill:#e2d0b8;}.cls-15{stroke-dasharray:4.93 4.93;}.cls-18{fill:#c7cacc;}</style></defs><title>tarifa</title><g id="Camada_2" data-name="Camada 2"><g id="Layer_3" data-name="Layer 3"><text class="cls-1" transform="translate(71.84 31.86)">TARIFA <tspan x="-7.5" y="48.45">BRANCA</tspan></text><text class="cls-1" transform="translate(1008.09 35.71)">TARIFA <tspan x="-80.73" y="48.45">CONVENCIONAL</tspan></text><rect class="cls-2" x="1029.77" y="212.78" width="90.85" height="63.24" rx="31.1" ry="31.1"/><circle class="cls-2" cx="1075.46" cy="157.81" r="29.52"/><line class="cls-3" x1="141.73" y1="187.33" x2="141.73" y2="216.68"/><rect class="cls-2" y="212.31" width="274.61" height="63.24" rx="31.1" ry="31.1"/><circle class="cls-2" cx="141.73" cy="157.81" r="29.52"/><path class="cls-4" d="M72.14,245.82l-6.07-4.15a1.8,1.8,0,0,1-.75-1.82l1.36-7.23a1.22,1.22,0,0,0-1.43-1.42L58,232.57a1.8,1.8,0,0,1-1.81-.75l-4.16-6.07a1.22,1.22,0,0,0-2,0l-4.16,6.07a1.79,1.79,0,0,1-1.81.75l-7.23-1.36a1.22,1.22,0,0,0-1.43,1.42l1.36,7.23a1.77,1.77,0,0,1-.75,1.82L30,245.82a1.23,1.23,0,0,0,0,2l3.44,2.35L36,252a1.79,1.79,0,0,1,.39.36h3.1a12.55,12.55,0,0,1-.77-2.16A13.14,13.14,0,0,1,51,233.7h.4A13.15,13.15,0,0,1,64.6,246.84a13,13,0,0,1-1.21,5.51h2.3a1.56,1.56,0,0,1,.38-.36l2.63-1.8,3.44-2.35A1.23,1.23,0,0,0,72.14,245.82Z"/><rect class="cls-4" x="28.74" y="250.2" width="44.62" height="4.11" rx="2.05" ry="2.05"/><path class="cls-4" d="M73.36,252.26h0a2.05,2.05,0,0,1-2.05,2.05H51V250.2H64.17a13.16,13.16,0,0,0-12.72-16.51H51v-8.49a1.21,1.21,0,0,1,1,.53l4.15,6.07a1.8,1.8,0,0,0,1.81.75l7.23-1.36a1.23,1.23,0,0,1,1.43,1.43l-1.36,7.23a1.79,1.79,0,0,0,.75,1.81l6.07,4.15a1.23,1.23,0,0,1,0,2L68.7,250.2h2.6A2.05,2.05,0,0,1,73.36,252.26Z"/><path class="cls-4" d="M237.05,259.65a17.27,17.27,0,1,1,0-30.71,15.41,15.41,0,0,0,0,30.71Z"/><path class="cls-4" d="M162.83,243.28l-6.07-4.16a1.8,1.8,0,0,1-.75-1.81l1.36-7.23a1.22,1.22,0,0,0-1.43-1.43L148.7,230a1.79,1.79,0,0,1-1.81-.75l-4.16-6.07a1.14,1.14,0,0,0-.61-.46,1.22,1.22,0,0,0-1.41.46l-4.16,6.07a1.79,1.79,0,0,1-1.81.75l-7.23-1.36a1.22,1.22,0,0,0-1.43,1.43l1.36,7.23a1.78,1.78,0,0,1-.75,1.81l-6.07,4.16a1.23,1.23,0,0,0,0,2l6.07,4.15a1.79,1.79,0,0,1,.75,1.82l-1.36,7.23a1.23,1.23,0,0,0,1.43,1.43l7.23-1.36a1.77,1.77,0,0,1,1.81.74l4.16,6.07a1.2,1.2,0,0,0,1.41.46,1.14,1.14,0,0,0,.61-.46l4.16-6.07a1.77,1.77,0,0,1,1.81-.74l7.23,1.36a1.23,1.23,0,0,0,1.43-1.43L156,251.26a1.81,1.81,0,0,1,.75-1.82l6.07-4.15A1.23,1.23,0,0,0,162.83,243.28Zm-20.7,14.15a13.15,13.15,0,1,1,13.15-13.15A13.15,13.15,0,0,1,142.13,257.44Z"/><path class="cls-4" d="M162.83,245.3l-6.07,4.15a1.81,1.81,0,0,0-.75,1.82l1.36,7.23a1.23,1.23,0,0,1-1.43,1.43l-7.23-1.36a1.77,1.77,0,0,0-1.81.74l-4.16,6.07a1.14,1.14,0,0,1-.61.46v-8.4a13.15,13.15,0,1,0,0-26.3v-8.4a1.14,1.14,0,0,1,.61.46l4.16,6.07a1.79,1.79,0,0,0,1.81.75l7.23-1.36a1.22,1.22,0,0,1,1.43,1.43L156,237.32a1.8,1.8,0,0,0,.75,1.81l6.07,4.16A1.23,1.23,0,0,1,162.83,245.3Z"/><path class="cls-4" d="M141.73,139.21a18.6,18.6,0,1,0,18.6,18.6A18.63,18.63,0,0,0,141.73,139.21Zm0,33.25a14.65,14.65,0,1,1,14.65-14.65A14.66,14.66,0,0,1,141.73,172.46Z"/><path class="cls-4" d="M151.42,157.24h-8.36V147.19a1.53,1.53,0,0,0-3.06,0v11.58a1.53,1.53,0,0,0,1.53,1.53h9.89a1.53,1.53,0,0,0,0-3.06Z"/><line class="cls-3" x1="141.73" y1="373.41" x2="141.73" y2="491.62"/><line class="cls-3" x1="141.73" y1="275.25" x2="141.73" y2="373.41"/><path class="cls-4" d="M1096.56,243.39l-6.07-4.16a1.8,1.8,0,0,1-.75-1.81l1.36-7.23a1.22,1.22,0,0,0-1.43-1.43l-7.23,1.36a1.79,1.79,0,0,1-1.81-.75l-4.16-6.07a1.14,1.14,0,0,0-.61-.46,1.22,1.22,0,0,0-1.41.46l-4.16,6.07a1.79,1.79,0,0,1-1.81.75l-7.23-1.36a1.22,1.22,0,0,0-1.43,1.43l1.36,7.23a1.78,1.78,0,0,1-.75,1.81l-6.07,4.16a1.23,1.23,0,0,0,0,2l6.07,4.15a1.79,1.79,0,0,1,.75,1.82l-1.36,7.23a1.23,1.23,0,0,0,1.43,1.43l7.23-1.36a1.77,1.77,0,0,1,1.81.74l4.16,6.07a1.2,1.2,0,0,0,1.41.46,1.14,1.14,0,0,0,.61-.46l4.16-6.07a1.77,1.77,0,0,1,1.81-.74l7.23,1.36a1.23,1.23,0,0,0,1.43-1.43l-1.36-7.23a1.81,1.81,0,0,1,.75-1.82l6.07-4.15A1.23,1.23,0,0,0,1096.56,243.39Zm-20.7,14.15A13.15,13.15,0,1,1,1089,244.4,13.15,13.15,0,0,1,1075.86,257.55Z"/><path class="cls-4" d="M1096.56,245.41l-6.07,4.15a1.81,1.81,0,0,0-.75,1.82l1.36,7.23a1.23,1.23,0,0,1-1.43,1.43l-7.23-1.36a1.77,1.77,0,0,0-1.81.74l-4.16,6.07a1.14,1.14,0,0,1-.61.46v-8.4a13.15,13.15,0,1,0,0-26.3v-8.4a1.14,1.14,0,0,1,.61.46l4.16,6.07a1.79,1.79,0,0,0,1.81.75l7.23-1.36a1.22,1.22,0,0,1,1.43,1.43l-1.36,7.23a1.8,1.8,0,0,0,.75,1.81l6.07,4.16A1.23,1.23,0,0,1,1096.56,245.41Z"/><path class="cls-4" d="M1075.46,139.21a18.6,18.6,0,1,0,18.6,18.6A18.63,18.63,0,0,0,1075.46,139.21Zm0,33.25a14.65,14.65,0,1,1,14.65-14.65A14.66,14.66,0,0,1,1075.46,172.46Z"/><path class="cls-4" d="M1085.16,157.24h-8.36V147.19a1.53,1.53,0,0,0-3.06,0v11.58a1.53,1.53,0,0,0,1.53,1.53h9.89a1.53,1.53,0,1,0,0-3.06Z"/><line class="cls-3" x1="1075.46" y1="187.33" x2="1075.46" y2="212.61"/><line class="cls-3" x1="1075.46" y1="373.41" x2="1075.46" y2="491.62"/><line class="cls-3" x1="1075.46" y1="276.19" x2="1075.46" y2="373.41"/><line class="cls-3" x1="701.7" y1="373.41" x2="1075.2" y2="373.41"/><line class="cls-3" x1="141.73" y1="373.41" x2="530.86" y2="373.41"/><circle class="cls-2" cx="616.73" cy="373.41" r="85.88"/><circle class="cls-4" cx="616.73" cy="373.41" r="73.05"/><rect class="cls-5" x="557.13" y="351.42" width="119.21" height="18.92" rx="9.31" ry="9.31"/><text class="cls-6" transform="translate(576.08 366.31)">03571</text><circle class="cls-5" cx="616.73" cy="326.87" r="10"/><circle class="cls-5" cx="616.73" cy="326.87" r="5.88"/><path class="cls-7" d="M594,390.72h49.7"/><path class="cls-5" d="M562.75,390.72H594"/><line class="cls-5" x1="562.75" y1="388.03" x2="562.75" y2="393.08"/><path class="cls-8" d="M670,388.64l1.31,2.08H643.74"/><line class="cls-5" x1="671.35" y1="390.72" x2="669.64" y2="392.43"/><line class="cls-9" x1="574.39" y1="408.79" x2="610.77" y2="408.79"/><line class="cls-9" x1="627.02" y1="408.79" x2="663.4" y2="408.79"/><circle class="cls-5" cx="584.4" cy="420.63" r="4.81"/><circle class="cls-5" cx="600.76" cy="420.63" r="4.81"/><circle class="cls-5" cx="637.03" cy="420.63" r="4.81"/><circle class="cls-5" cx="653.39" cy="420.63" r="4.81"/><rect class="cls-2" x="33.69" y="491.62" width="216.08" height="28.55" rx="14.04" ry="14.04"/><polygon class="cls-10" points="231.42 520.16 231.42 708.3 231.17 708.3 216.15 693.28 201.11 708.3 200.59 708.3 185.56 693.28 170.53 708.3 170.01 708.3 154.98 693.28 139.95 708.3 139.43 708.3 124.4 693.28 109.37 708.3 108.85 708.3 93.82 693.28 78.78 708.3 78.27 708.3 63.23 693.28 48.2 708.3 47.96 708.3 47.96 520.16 231.42 520.16"/><circle class="cls-11" cx="74.94" cy="539.57" r="3.51"/><circle class="cls-11" cx="88.11" cy="539.57" r="3.51"/><circle class="cls-11" cx="101.29" cy="539.57" r="3.51"/><circle class="cls-11" cx="114.46" cy="539.57" r="3.51"/><circle class="cls-11" cx="127.64" cy="539.57" r="3.51"/><circle class="cls-11" cx="140.82" cy="539.57" r="3.51"/><circle class="cls-11" cx="153.99" cy="539.57" r="3.51"/><circle class="cls-11" cx="167.17" cy="539.57" r="3.51"/><circle class="cls-11" cx="180.34" cy="539.57" r="3.51"/><circle class="cls-11" cx="193.52" cy="539.57" r="3.51"/><circle class="cls-11" cx="206.7" cy="539.57" r="3.51"/><rect class="cls-12" x="131.15" y="565.79" width="75.54" height="9.16" rx="4.5" ry="4.5"/><rect class="cls-12" x="164.88" y="589.93" width="41.82" height="9.16" rx="4.5" ry="4.5"/><rect class="cls-12" x="131.15" y="589.93" width="26.63" height="9.16" rx="4.5" ry="4.5"/><rect class="cls-12" x="131.15" y="614.07" width="41.82" height="9.16" rx="4.5" ry="4.5" transform="translate(304.12 1237.29) rotate(-180)"/><rect class="cls-12" x="180.07" y="614.07" width="26.63" height="9.16" rx="4.5" ry="4.5" transform="translate(386.76 1237.29) rotate(-180)"/><path class="cls-13" d="M108.94,620.39a13.15,13.15,0,0,1-4.77,10.6q-4.77,4-13.36,4.79v8.51H85.12V636a46.13,46.13,0,0,1-17.76-3.57v-11a47.66,47.66,0,0,0,8.69,3.15,46.52,46.52,0,0,0,9.07,1.62V613.34l-2.78-1.08q-8.22-3.24-11.64-7a13.52,13.52,0,0,1-3.42-9.4,12.26,12.26,0,0,1,4.71-9.9q4.71-3.88,13.13-4.71v-6.35h5.69v6.18A47.12,47.12,0,0,1,108,584.87l-3.9,9.71a44.88,44.88,0,0,0-13.28-3.24v12.24a63.77,63.77,0,0,1,11.52,5.4,15.77,15.77,0,0,1,5,5A12.45,12.45,0,0,1,108.94,620.39ZM79.77,595.83a3.94,3.94,0,0,0,1.27,3,15.06,15.06,0,0,0,4.09,2.43v-9.75Q79.77,592.3,79.77,595.83ZM96.45,621A3.73,3.73,0,0,0,95,618.07a18.5,18.5,0,0,0-4.23-2.49v10.33Q96.45,625,96.45,621Z"/><line class="cls-14" x1="190.01" y1="659.28" x2="192.51" y2="659.28"/><line class="cls-15" x1="197.44" y1="659.28" x2="263.98" y2="659.28"/><line class="cls-14" x1="266.44" y1="659.28" x2="268.94" y2="659.28"/><text class="cls-16" transform="translate(150.48 672.08)">50</text><circle class="cls-2" cx="286.36" cy="659.28" r="17.42"/><polygon class="cls-4" points="286.36 650.1 289.35 656.14 296.02 657.11 291.19 661.82 292.33 668.46 286.36 665.33 280.4 668.46 281.54 661.82 276.71 657.11 283.38 656.14 286.36 650.1"/><rect class="cls-2" x="969.93" y="491.62" width="216.08" height="28.55" rx="14.04" ry="14.04"/><polygon class="cls-10" points="1167.66 520.16 1167.66 708.3 1167.42 708.3 1152.39 693.28 1137.36 708.3 1136.84 708.3 1121.8 693.28 1106.78 708.3 1106.25 708.3 1091.22 693.28 1076.2 708.3 1075.67 708.3 1060.64 693.28 1045.62 708.3 1045.09 708.3 1030.06 693.28 1015.03 708.3 1014.51 708.3 999.48 693.28 984.45 708.3 984.21 708.3 984.21 520.16 1167.66 520.16"/><circle class="cls-11" cx="1011.18" cy="539.57" r="3.51"/><circle class="cls-11" cx="1024.36" cy="539.57" r="3.51"/><circle class="cls-11" cx="1037.53" cy="539.57" r="3.51"/><circle class="cls-11" cx="1050.71" cy="539.57" r="3.51"/><circle class="cls-11" cx="1063.88" cy="539.57" r="3.51"/><circle class="cls-11" cx="1077.06" cy="539.57" r="3.51"/><circle class="cls-11" cx="1090.24" cy="539.57" r="3.51"/><circle class="cls-11" cx="1103.41" cy="539.57" r="3.51"/><circle class="cls-11" cx="1116.59" cy="539.57" r="3.51"/><circle class="cls-11" cx="1129.76" cy="539.57" r="3.51"/><circle class="cls-11" cx="1142.94" cy="539.57" r="3.51"/><rect class="cls-12" x="1067.39" y="565.79" width="75.54" height="9.16" rx="4.5" ry="4.5"/><rect class="cls-12" x="1101.12" y="589.93" width="41.82" height="9.16" rx="4.5" ry="4.5"/><rect class="cls-12" x="1067.39" y="589.93" width="26.63" height="9.16" rx="4.5" ry="4.5"/><rect class="cls-12" x="1067.39" y="614.07" width="41.82" height="9.16" rx="4.5" ry="4.5" transform="translate(2176.61 1237.29) rotate(-180)"/><rect class="cls-12" x="1116.31" y="614.07" width="26.63" height="9.16" rx="4.5" ry="4.5" transform="translate(2259.25 1237.29) rotate(-180)"/><path class="cls-13" d="M1045.19,620.39a13.15,13.15,0,0,1-4.77,10.6q-4.77,4-13.36,4.79v8.51h-5.69V636a46.13,46.13,0,0,1-17.76-3.57v-11a47.66,47.66,0,0,0,8.69,3.15,46.52,46.52,0,0,0,9.07,1.62V613.34l-2.78-1.08q-8.22-3.24-11.64-7a13.52,13.52,0,0,1-3.42-9.4,12.26,12.26,0,0,1,4.71-9.9q4.71-3.88,13.13-4.71v-6.35h5.69v6.18a47.12,47.12,0,0,1,17.18,3.82l-3.9,9.71a44.88,44.88,0,0,0-13.28-3.24v12.24a63.77,63.77,0,0,1,11.52,5.4,15.77,15.77,0,0,1,5,5A12.45,12.45,0,0,1,1045.19,620.39ZM1016,595.83a3.94,3.94,0,0,0,1.27,3,15.06,15.06,0,0,0,4.09,2.43v-9.75Q1016,592.3,1016,595.83ZM1032.7,621a3.73,3.73,0,0,0-1.41-2.95,18.5,18.5,0,0,0-4.23-2.49v10.33Q1032.7,625,1032.7,621Z"/><text class="cls-17" transform="translate(1084.2 672.08)">72</text><circle class="cls-18" cx="183.61" cy="373.19" r="4.43"/><circle class="cls-18" cx="214.14" cy="373.19" r="4.43"/><circle class="cls-18" cx="244.68" cy="373.19" r="4.43"/><circle class="cls-18" cx="275.22" cy="373.19" r="4.43"/><circle class="cls-18" cx="305.76" cy="373.19" r="4.43"/><circle class="cls-18" cx="336.29" cy="373.19" r="4.43"/><circle class="cls-18" cx="366.83" cy="373.19" r="4.43"/><circle class="cls-18" cx="397.37" cy="373.19" r="4.43"/><circle class="cls-18" cx="427.9" cy="373.19" r="4.43"/><circle class="cls-18" cx="458.44" cy="373.19" r="4.43"/><circle class="cls-18" cx="488.98" cy="373.19" r="4.43"/><circle class="cls-18" cx="735.76" cy="373.19" r="4.43"/><circle class="cls-18" cx="766.3" cy="373.19" r="4.43"/><circle class="cls-18" cx="796.84" cy="373.19" r="4.43"/><circle class="cls-18" cx="827.37" cy="373.19" r="4.43"/><circle class="cls-18" cx="857.91" cy="373.19" r="4.43"/><circle class="cls-18" cx="888.45" cy="373.19" r="4.43"/><circle class="cls-18" cx="918.98" cy="373.19" r="4.43"/><circle class="cls-18" cx="949.52" cy="373.19" r="4.43"/><circle class="cls-18" cx="980.06" cy="373.19" r="4.43"/><circle class="cls-18" cx="1010.59" cy="373.19" r="4.43"/><circle class="cls-18" cx="1041.13" cy="373.19" r="4.43"/><polygon class="cls-13" points="163.24 371.8 143.98 371.8 146.85 341.63 121.02 383.97 140.11 383.97 136.75 413.61 163.24 371.8"/><polygon class="cls-13" points="1096.88 371.8 1077.61 371.8 1080.49 341.63 1054.65 383.97 1073.75 383.97 1070.38 413.61 1096.88 371.8"/><circle class="cls-18" cx="141.73" cy="296.94" r="4.43"/><circle class="cls-18" cx="141.73" cy="322.52" r="4.43"/><circle class="cls-18" cx="141.73" cy="436.78" r="4.43"/><circle class="cls-18" cx="141.73" cy="462.35" r="4.43"/><circle class="cls-18" cx="1075.46" cy="296.94" r="4.43"/><circle class="cls-18" cx="1075.46" cy="322.52" r="4.43"/><circle class="cls-18" cx="1075.46" cy="436.78" r="4.43"/><circle class="cls-18" cx="1075.46" cy="462.35" r="4.43"/></g></g></svg>